<svg t="1573371187450" class="icon" viewBox="0 0 1024 1024" version="1.1" xmlns="http://www.w3.org/2000/svg" p-id="732" width="200" height="200"><path d="M634.905173 0a389.12 389.12 0 0 0-307.285333 627.84L3.01184 952.405333a10.24 10.24 0 0 0 0 14.506667l54.144 54.101333a10.24 10.24 0 0 0 14.464 0l324.565333-324.608A389.12 389.12 0 0 0 1024.025173 389.12 389.12 389.12 0 0 0 634.905173 0z m206.336 595.456a289.536 289.536 0 0 1-206.336 85.504 289.536 289.536 0 0 1-206.336-85.504A289.536 289.536 0 0 1 343.065173 389.12c0-77.952 30.336-151.296 85.504-206.336A289.536 289.536 0 0 1 634.905173 97.28c77.952 0 151.296 30.293333 206.336 85.504A289.536 289.536 0 0 1 926.745173 389.12a289.536 289.536 0 0 1-85.504 206.336z" p-id="733"></path></svg>